<svg xmlns="http://www.w3.org/2000/svg" xmlns:xlink="http://www.w3.org/1999/xlink" width="500" zoomAndPan="magnify" viewBox="0 0 375 374.999991" height="500" preserveAspectRatio="xMidYMid meet" version="1.0"><defs><g/><clipPath id="c93d54e79c"><path d="M 50.714844 153 L 80 153 L 80 242.457031 L 50.714844 242.457031 Z M 50.714844 153 " clip-rule="nonzero"/></clipPath><clipPath id="6e840a046f"><path d="M 57 132.207031 L 131 132.207031 L 131 188 L 57 188 Z M 57 132.207031 " clip-rule="nonzero"/></clipPath><clipPath id="9403f3cb5f"><path d="M 92 148 L 139.964844 148 L 139.964844 222 L 92 222 Z M 92 148 " clip-rule="nonzero"/></clipPath></defs><g fill="#000000" fill-opacity="1"><g transform="translate(151.232133, 188.279152)"><g><path d="M 14.828125 0 L 12.015625 -9.90625 L 9.1875 0 L 4.703125 0 L -0.328125 -17.65625 L 4.15625 -17.65625 L 7.171875 -5.546875 L 7.28125 -5.546875 L 10.484375 -17.65625 L 13.53125 -17.65625 L 16.734375 -5.546875 L 16.84375 -5.546875 L 19.859375 -17.65625 L 24.3125 -17.65625 L 19.28125 0 Z M 14.828125 0 "/></g></g></g><g fill="#000000" fill-opacity="1"><g transform="translate(177.674206, 188.279152)"><g><path d="M 5.3125 -7.078125 L 5.3125 0 L 1.28125 0 L 1.28125 -17.65625 L 5.3125 -17.65625 L 5.3125 -10.625 L 11 -10.625 L 11 -17.65625 L 15.03125 -17.65625 L 15.03125 0 L 11 0 L 11 -7.078125 Z M 5.3125 -7.078125 "/></g></g></g><g fill="#000000" fill-opacity="1"><g transform="translate(196.43005, 188.279152)"><g><path d="M 0.5 -8.84375 C 0.5 -11.394531 1.367188 -13.554688 3.109375 -15.328125 C 4.847656 -17.097656 6.941406 -17.984375 9.390625 -17.984375 C 11.859375 -17.984375 13.957031 -17.097656 15.6875 -15.328125 C 17.414062 -13.566406 18.28125 -11.40625 18.28125 -8.84375 C 18.28125 -6.257812 17.429688 -4.082031 15.734375 -2.3125 C 14.035156 -0.550781 11.921875 0.328125 9.390625 0.328125 C 6.804688 0.328125 4.675781 -0.546875 3 -2.296875 C 1.332031 -4.046875 0.5 -6.226562 0.5 -8.84375 Z M 4.84375 -8.84375 C 4.84375 -7.914062 4.984375 -7.066406 5.265625 -6.296875 C 5.546875 -5.535156 6.039062 -4.890625 6.75 -4.359375 C 7.46875 -3.835938 8.347656 -3.578125 9.390625 -3.578125 C 10.890625 -3.578125 12.019531 -4.085938 12.78125 -5.109375 C 13.550781 -6.140625 13.9375 -7.382812 13.9375 -8.84375 C 13.9375 -10.28125 13.546875 -11.515625 12.765625 -12.546875 C 11.992188 -13.585938 10.867188 -14.109375 9.390625 -14.109375 C 7.941406 -14.109375 6.820312 -13.585938 6.03125 -12.546875 C 5.238281 -11.515625 4.84375 -10.28125 4.84375 -8.84375 Z M 4.84375 -8.84375 "/></g></g></g><g fill="#000000" fill-opacity="1"><g transform="translate(217.648052, 188.279152)"><g><path d="M 5.3125 -17.65625 L 5.3125 -3.53125 L 11.390625 -3.53125 L 11.390625 0 L 1.28125 0 L 1.28125 -17.65625 Z M 5.3125 -17.65625 "/></g></g></g><g fill="#000000" fill-opacity="1"><g transform="translate(232.186105, 188.279152)"><g><path d="M 11.390625 -17.65625 L 11.390625 -14.125 L 5.3125 -14.125 L 5.3125 -10.625 L 11.125 -10.625 L 11.125 -7.078125 L 5.3125 -7.078125 L 5.3125 -3.53125 L 11.390625 -3.53125 L 11.390625 0 L 1.28125 0 L 1.28125 -17.65625 Z M 11.390625 -17.65625 "/></g></g></g><g fill="#000000" fill-opacity="1"><g transform="translate(247.045301, 188.279152)"><g><path d="M 5.3125 -7.078125 L 5.3125 0 L 1.28125 0 L 1.28125 -17.65625 L 5.3125 -17.65625 L 5.3125 -10.625 L 11 -10.625 L 11 -17.65625 L 15.03125 -17.65625 L 15.03125 0 L 11 0 L 11 -7.078125 Z M 5.3125 -7.078125 "/></g></g></g><g fill="#000000" fill-opacity="1"><g transform="translate(265.801147, 188.279152)"><g><path d="M 11.390625 -17.65625 L 11.390625 -14.125 L 5.3125 -14.125 L 5.3125 -10.625 L 11.125 -10.625 L 11.125 -7.078125 L 5.3125 -7.078125 L 5.3125 -3.53125 L 11.390625 -3.53125 L 11.390625 0 L 1.28125 0 L 1.28125 -17.65625 Z M 11.390625 -17.65625 "/></g></g></g><g fill="#000000" fill-opacity="1"><g transform="translate(280.66035, 188.279152)"><g><path d="M 10.25 -17.65625 L 17.375 0 L 13.0625 0 L 11.75 -3.53125 L 5.03125 -3.53125 L 3.71875 0 L -0.59375 0 L 6.53125 -17.65625 Z M 10.375 -7.0625 L 8.40625 -12.203125 L 8.375 -12.203125 L 6.40625 -7.0625 Z M 10.375 -7.0625 "/></g></g></g><g fill="#000000" fill-opacity="1"><g transform="translate(299.887224, 188.279152)"><g><path d="M 5.3125 -17.65625 L 5.3125 -3.53125 L 11.390625 -3.53125 L 11.390625 0 L 1.28125 0 L 1.28125 -17.65625 Z M 5.3125 -17.65625 "/></g></g></g><g fill="#000000" fill-opacity="1"><g transform="translate(314.425282, 188.279152)"><g><path d="M 0.171875 -14.125 L 0.171875 -17.65625 L 12.59375 -17.65625 L 12.59375 -14.125 L 8.390625 -14.125 L 8.390625 0 L 4.359375 0 L 4.359375 -14.125 Z M 0.171875 -14.125 "/></g></g></g><g fill="#000000" fill-opacity="1"><g transform="translate(329.627052, 188.279152)"><g><path d="M 5.3125 -7.078125 L 5.3125 0 L 1.28125 0 L 1.28125 -17.65625 L 5.3125 -17.65625 L 5.3125 -10.625 L 11 -10.625 L 11 -17.65625 L 15.03125 -17.65625 L 15.03125 0 L 11 0 L 11 -7.078125 Z M 5.3125 -7.078125 "/></g></g></g><g clip-path="url(#c93d54e79c)"><path fill="#5ab334" d="M 72.636719 242.476562 C 72.640625 242.460938 96.671875 170.839844 51.445312 153.902344 C 51.445312 153.902344 53.023438 156.035156 54.621094 158.585938 C 52.128906 164.140625 50.746094 170.292969 50.746094 176.773438 C 50.746094 191.914062 58.308594 205.289062 69.863281 213.339844 C 73.285156 227.648438 72.636719 242.472656 72.636719 242.476562 " fill-opacity="1" fill-rule="nonzero"/></g><g clip-path="url(#6e840a046f)"><path fill="#ff5757" d="M 97.03125 148.890625 C 103.417969 147.957031 109.359375 152.371094 110.292969 158.753906 C 111.230469 165.136719 106.8125 171.066406 100.421875 172.003906 C 94.035156 172.941406 88.09375 168.523438 87.160156 162.140625 C 86.222656 155.757812 90.640625 149.828125 97.03125 148.890625 Z M 95.496094 187.300781 C 95.496094 187.300781 124.214844 161.816406 130.417969 132.488281 C 130.417969 132.492188 127.621094 137.480469 123.476562 142.214844 C 115.800781 135.96875 106.007812 132.222656 95.339844 132.222656 C 79.09375 132.222656 64.886719 140.902344 57.089844 153.871094 C 65.78125 154.742188 82.769531 160.148438 95.496094 187.300781 " fill-opacity="1" fill-rule="nonzero"/></g><g clip-path="url(#9403f3cb5f)"><path fill="#7ed957" d="M 130.027344 148.78125 C 127.714844 164.199219 119.445312 189.652344 92.65625 221.238281 C 93.542969 221.292969 94.4375 221.320312 95.339844 221.320312 C 119.964844 221.320312 139.929688 201.378906 139.929688 176.773438 C 139.929688 166.167969 136.21875 156.429688 130.027344 148.78125 " fill-opacity="1" fill-rule="nonzero"/></g></svg>